<?xml version="1.0" encoding="iso-8859-1"?>
<!-- Uploaded to: SVG Repo, www.svgrepo.com, Generator: SVG Repo Mixer Tools -->
<svg version="1.1" id="Layer_1" xmlns="http://www.w3.org/2000/svg" xmlns:xlink="http://www.w3.org/1999/xlink" 
	 viewBox="0 0 512 512" xml:space="preserve">
<path style="fill:#CCCCCC;" d="M29.63,118.858h62.518c-14.103,0-25.552,11.437-25.552,25.552v165.378v44.349v30.764
	c0,14.103,11.449,25.54,25.552,25.54H29.63C13.271,410.442,0,397.183,0,380.824V148.476C0,132.117,13.271,118.858,29.63,118.858z"/>
<polygon style="fill:#999999;" points="290.16,403.071 285.612,421.565 275.188,463.899 166.102,463.899 176.526,421.565 
	181.074,403.071 "/>
<polygon style="fill:#808080;" points="290.16,403.071 285.612,421.565 176.526,421.565 181.074,403.071 "/>
<rect x="157.054" y="453.041" style="fill:#CCCCCC;" width="198.797" height="18.097"/>
<path style="fill:#2BA5F7;" d="M479.571,297.854V144.443c0-14.115-11.449-25.552-25.552-25.552h-8.964H325.617H262.28h-5.827H73.677
	h-8.964c-14.103,0-25.552,11.437-25.552,25.552v165.378v44.349h217.291h223.119h0.121v-56.316L479.571,297.854L479.571,297.854z"/>
<path style="fill:#F95428;" d="M244.207,142.42c22.126,0,40.054,17.94,40.054,40.066s-17.928,40.054-40.054,40.054
	s-40.066-17.928-40.066-40.054S222.081,142.42,244.207,142.42z"/>
<polygon style="fill:#E09B2D;" points="222.383,261.942 306.146,354.138 210.161,354.138 188.409,299.329 "/>
<polygon style="fill:#F7B239;" points="188.409,299.329 238.223,354.138 39.161,354.138 39.161,309.789 121.223,225.447 "/>
<path style="fill:#F2F2F2;" d="M479.692,354.138v30.764c0,14.103-11.437,25.54-25.552,25.54h-43.227H288.797H179.723H73.677h-8.964
	c-14.103,0-25.552-11.437-25.552-25.54v-30.764h199.062h67.922H479.692z"/>
<rect x="39.161" y="348.709" style="fill:#808080;" width="440.531" height="10.858"/>
<path style="fill:#B3B3B3;" d="M353.016,40.862h47.413c-15.129,0-27.398,12.269-27.398,27.398v19.713v121.199v40.392v20.859
	c0,15.129,12.269,27.398,27.398,27.398h-47.413c-15.129,0-27.398-12.269-27.398-27.398V118.858V68.272
	C325.617,53.132,337.887,40.862,353.016,40.862z"/>
<g>
	<path style="fill:#CCCCCC;" d="M512,68.26v19.713H354.572V68.26c0-15.129,12.27-27.398,27.398-27.398h73.677h28.954
		C499.731,40.862,512,53.132,512,68.26z"/>
	<path style="fill:#CCCCCC;" d="M494.615,249.564H512v20.859c0,15.129-12.269,27.398-27.398,27.398h-4.91h-24.044H381.97
		c-15.129,0-27.398-12.269-27.398-27.398v-20.859h100.81L494.615,249.564L494.615,249.564z"/>
</g>
<path style="fill:#2BA5F7;" d="M512,87.973v161.59H354.572V87.973H512z"/>
<polygon style="fill:#E09B2D;" points="446.394,196.492 494.615,249.564 409.224,249.564 426.777,218.088 "/>
<polygon style="fill:#F7B239;" points="426.777,218.088 455.382,249.564 354.572,249.564 354.572,209.172 357.286,209.172 
	387.978,175.416 "/>
<path style="fill:#F95428;" d="M459.001,127.46c12.776,0,23.139,10.363,23.139,23.139s-10.363,23.139-23.139,23.139
	c-12.776,0-23.139-10.363-23.139-23.139C435.862,137.823,446.225,127.46,459.001,127.46z"/>
<g>
	<rect x="354.572" y="244.135" style="fill:#808080;" width="157.428" height="10.858"/>
	<rect x="354.572" y="82.544" style="fill:#808080;" width="157.428" height="10.858"/>
</g>
<g>
	<path style="fill:#999999;" d="M438.295,282.934h-10.019c-3.23,0-5.849-2.618-5.849-5.849v-1.574c0-3.23,2.618-5.849,5.849-5.849
		h10.019c3.23,0,5.849,2.618,5.849,5.849v1.574C444.144,280.316,441.526,282.934,438.295,282.934z"/>
	<path style="fill:#999999;" d="M455.002,63.965H411.57c-1.666,0-3.016-1.35-3.016-3.016s1.35-3.016,3.016-3.016h43.432
		c1.666,0,3.016,1.35,3.016,3.016S456.668,63.965,455.002,63.965z"/>
</g>
</svg>